# xmcd
#
# Track frame offsets: 
#        150
#        31247
#        45947
#        65270
#        77740
#        94975
#        109430
#        125170
#        144810
#        173165
#        182357
#        202142
#        217575
#        235480
#
# Disc length: 3450 seconds
#
# Revision: 2
# Processed by: cddbd v1.5.2PL0 Copyright (c) Steve Scherf et al.
# Submitted via: ExactAudioCopy v1.0b3
#
DISCID=bc0d780e
DTITLE=Billy Boy Arnold - Blowin' The Blues Away
DYEAR=1997
DGENRE=Blues
TTITLE0=Dirty Mother Fucker
TTITLE1=Don't Stay Out All Night
TTITLE2=1-2-99
TTITLE3=Riding The El
TTITLE4=Just Got To Know
TTITLE5=I Wish You Would
TTITLE6=Ah'w Baby
TTITLE7=Sweet Miss Bea
TTITLE8=Blue And Lonesome
TTITLE9=Eldorado Cadillac
TTITLE10=Mary Bernice
TTITLE11=Christmas Time
TTITLE12=She Fooled Me
TTITLE13=Somebody Help Me
EXTD=
EXTT0=
EXTT1=
EXTT2=
EXTT3=
EXTT4=
EXTT5=
EXTT6=
EXTT7=
EXTT8=
EXTT9=
EXTT10=
EXTT11=
EXTT12=
EXTT13=
PLAYORDER=
